<svg width="165" height="49" viewBox="0 0 165 49" fill="none" xmlns="http://www.w3.org/2000/svg">
<path d="M58.6875 14.375H62.8359C64.6641 14.375 65.8125 15.1328 66.2812 16.6484C66.5781 17.6016 66.7266 18.7148 66.7266 19.9883C66.7266 21.2617 66.6914 22.2188 66.6211 22.8594C66.4648 24.2656 66.0938 25.293 65.5078 25.9414C64.9219 26.582 64.0312 26.9023 62.8359 26.9023H61.1133V35H58.6875V14.375ZM64.3008 20.1992C64.3008 18.7852 64.1875 17.7812 63.9609 17.1875C63.7422 16.5938 63.3047 16.2969 62.6484 16.2969H61.1133V24.8867H62.5898C63.2773 24.8867 63.7344 24.5859 63.9609 23.9844C64.1875 23.3828 64.3008 22.2539 64.3008 20.5977V20.1992ZM69.1523 14.1523H71.5547V19.2852C71.7188 18.7148 72.0586 18.2266 72.5742 17.8203C73.0898 17.4062 73.7383 17.1992 74.5195 17.1992C75.3086 17.1992 75.9492 17.5195 76.4414 18.1602C76.9336 18.793 77.1797 19.7344 77.1797 20.9844V35H74.7773V21.1836C74.7773 19.9102 74.2969 19.2734 73.3359 19.2734C72.8125 19.2734 72.3828 19.4609 72.0469 19.8359C71.7188 20.2031 71.5547 20.75 71.5547 21.4766V35H69.1523V14.1523ZM80.25 22.9648C80.25 20.1133 80.9062 18.3359 82.2188 17.6328C82.75 17.3516 83.3672 17.2109 84.0703 17.2109C85.9062 17.2109 87.0781 17.9492 87.5859 19.4258C87.8984 20.3555 88.0547 21.5352 88.0547 22.9648V29.1875C88.0547 31.6562 87.7227 33.2773 87.0586 34.0508C86.3945 34.8242 85.4336 35.2109 84.1758 35.2109C82.3398 35.2109 81.1719 34.4297 80.6719 32.8672C80.3906 31.9688 80.25 30.7422 80.25 29.1875V22.9648ZM85.6406 22.4844C85.6406 20.8125 85.4023 19.7969 84.9258 19.4375C84.7305 19.2891 84.4766 19.2148 84.1641 19.2148C83.5312 19.2148 83.1211 19.5 82.9336 20.0703C82.7539 20.6406 82.6641 21.4453 82.6641 22.4844V29.8555C82.6641 31.582 82.9062 32.625 83.3906 32.9844C83.5859 33.1328 83.8281 33.207 84.1172 33.207C84.1328 33.207 84.1484 33.207 84.1641 33.207C84.7812 33.207 85.1797 32.918 85.3594 32.3398C85.5469 31.7539 85.6406 30.9258 85.6406 29.8555V22.4844ZM91.6523 14.375H94.0547V17.5625H95.9531V19.3438H94.0547V32.1758C94.0547 32.6289 94.1602 32.9141 94.3711 33.0312C94.582 33.1406 95.1172 33.1953 95.9766 33.1953V35.1055H94.3242C93.2148 35.1055 92.4922 34.9062 92.1562 34.5078C91.8203 34.1016 91.6523 33.3945 91.6523 32.3867V19.3438H90.0469V17.5625H91.6523V14.375ZM98.1328 22.9648C98.1328 20.1133 98.7891 18.3359 100.102 17.6328C100.633 17.3516 101.25 17.2109 101.953 17.2109C103.789 17.2109 104.961 17.9492 105.469 19.4258C105.781 20.3555 105.938 21.5352 105.938 22.9648V29.1875C105.938 31.6562 105.605 33.2773 104.941 34.0508C104.277 34.8242 103.316 35.2109 102.059 35.2109C100.223 35.2109 99.0547 34.4297 98.5547 32.8672C98.2734 31.9688 98.1328 30.7422 98.1328 29.1875V22.9648ZM103.523 22.4844C103.523 20.8125 103.285 19.7969 102.809 19.4375C102.613 19.2891 102.359 19.2148 102.047 19.2148C101.414 19.2148 101.004 19.5 100.816 20.0703C100.637 20.6406 100.547 21.4453 100.547 22.4844V29.8555C100.547 31.582 100.789 32.625 101.273 32.9844C101.469 33.1328 101.711 33.207 102 33.207C102.016 33.207 102.031 33.207 102.047 33.207C102.664 33.207 103.062 32.918 103.242 32.3398C103.43 31.7539 103.523 30.9258 103.523 29.8555V22.4844ZM114.984 14.375H121.148V16.3906H117.41V23.4453H120.949V25.4609H117.41V32.9844H121.195V35H114.984V14.375ZM129.211 14.1523H131.625V35H129.211V33.5234C128.773 34.6094 127.965 35.1523 126.785 35.1523C125.168 35.1523 124.219 34.0859 123.938 31.9531C123.844 31.2422 123.797 30.3828 123.797 29.375V22.7305C123.797 20.6133 124.141 19.1172 124.828 18.2422C125.375 17.5547 126.148 17.2109 127.148 17.2109C127.586 17.2109 127.988 17.3398 128.355 17.5977C128.73 17.8555 129.016 18.1875 129.211 18.5938V14.1523ZM129.223 22.6953C129.223 21.4609 129.117 20.5742 128.906 20.0352C128.703 19.4961 128.305 19.2266 127.711 19.2266C127.125 19.2266 126.727 19.5 126.516 20.0469C126.312 20.5859 126.211 21.4883 126.211 22.7539V29.8555C126.211 31.5742 126.438 32.6133 126.891 32.9727C127.078 33.1211 127.344 33.1953 127.688 33.1953C128.031 33.1953 128.312 33.1016 128.531 32.9141C128.992 32.5234 129.223 31.4688 129.223 29.75V22.6953ZM135.094 17.4219H137.496V35H135.094V17.4219ZM135.094 13.6016H137.508V15.8047H135.094V13.6016ZM141.387 14.375H143.789V17.5625H145.688V19.3438H143.789V32.1758C143.789 32.6289 143.895 32.9141 144.105 33.0312C144.316 33.1406 144.852 33.1953 145.711 33.1953V35.1055H144.059C142.949 35.1055 142.227 34.9062 141.891 34.5078C141.555 34.1016 141.387 33.3945 141.387 32.3867V19.3438H139.781V17.5625H141.387V14.375ZM147.867 22.9648C147.867 20.1133 148.523 18.3359 149.836 17.6328C150.367 17.3516 150.984 17.2109 151.688 17.2109C153.523 17.2109 154.695 17.9492 155.203 19.4258C155.516 20.3555 155.672 21.5352 155.672 22.9648V29.1875C155.672 31.6562 155.34 33.2773 154.676 34.0508C154.012 34.8242 153.051 35.2109 151.793 35.2109C149.957 35.2109 148.789 34.4297 148.289 32.8672C148.008 31.9688 147.867 30.7422 147.867 29.1875V22.9648ZM153.258 22.4844C153.258 20.8125 153.02 19.7969 152.543 19.4375C152.348 19.2891 152.094 19.2148 151.781 19.2148C151.148 19.2148 150.738 19.5 150.551 20.0703C150.371 20.6406 150.281 21.4453 150.281 22.4844V29.8555C150.281 31.582 150.523 32.625 151.008 32.9844C151.203 33.1328 151.445 33.207 151.734 33.207C151.75 33.207 151.766 33.207 151.781 33.207C152.398 33.207 152.797 32.918 152.977 32.3398C153.164 31.7539 153.258 30.9258 153.258 29.8555V22.4844ZM164.25 17.2109C164.281 17.2109 164.297 17.7188 164.297 18.7344L164.285 19.25C162.879 19.25 161.871 19.7383 161.262 20.7148V35H158.848V17.4219H161.262V19.3789C161.465 18.6914 161.82 18.1602 162.328 17.7852C162.844 17.4023 163.484 17.2109 164.25 17.2109Z" fill="white"/>
<path d="M24.126 24.4934C24.126 24.4934 18.1251 11.5272 18.1251 5.04403C18.1251 -1.43909 30.1269 -1.91932 30.1269 5.04403C30.1269 12.0074 24.126 24.4934 24.126 24.4934Z" fill="#457B9D"/>
<path d="M24.035 24.581C24.035 24.581 10.4784 19.7215 5.87435 15.1175C1.27032 10.5134 9.62636 1.47533 14.5714 6.4204C19.5165 11.3655 24.035 24.581 24.035 24.581Z" fill="#8E8358"/>
<path d="M24.4934 24.126C24.4934 24.126 11.5272 30.1269 5.04404 30.1269C-1.43909 30.1269 -1.91932 18.1251 5.04403 18.1251C12.0074 18.1251 24.4934 24.126 24.4934 24.126Z" fill="#CE84AD"/>
<path d="M24.035 24.217C24.035 24.217 19.1755 37.7736 14.5714 42.3777C9.9674 46.9817 0.929276 38.6256 5.87435 33.6806C10.8194 28.7355 24.035 24.217 24.035 24.217Z" fill="#C47335"/>
<path d="M24.126 23.7586C24.126 23.7586 30.1269 36.7248 30.1269 43.208C30.1269 49.6911 18.1251 50.1713 18.1251 43.208C18.1251 36.2446 24.126 23.7586 24.126 23.7586Z" fill="#457B9D"/>
<path d="M24.126 24.4934C24.126 24.4934 30.1269 11.5272 30.1269 5.04403C30.1269 -1.43909 18.1251 -1.91932 18.1251 5.04403C18.1251 12.0074 24.126 24.4934 24.126 24.4934Z" fill="#457B9D"/>
<path d="M24.217 24.581C24.217 24.581 37.7736 19.7215 42.3777 15.1175C46.9817 10.5134 38.6256 1.47533 33.6806 6.4204C28.7355 11.3655 24.217 24.581 24.217 24.581Z" fill="#8B9556"/>
<path d="M23.7586 24.126C23.7586 24.126 36.7248 30.1269 43.208 30.1269C49.6911 30.1269 50.1713 18.1251 43.208 18.1251C36.2446 18.1251 23.7586 24.126 23.7586 24.126Z" fill="#8A3033"/>
<path d="M24.217 24.217C24.217 24.217 29.0765 37.7736 33.6806 42.3777C38.2846 46.9817 47.3227 38.6256 42.3777 33.6806C37.4326 28.7355 24.217 24.217 24.217 24.217Z" fill="#1C7C54"/>
<path d="M24.126 23.7586C24.126 23.7586 18.1251 36.7248 18.1251 43.208C18.1251 49.6911 30.1269 50.1713 30.1269 43.208C30.1269 36.2446 24.126 23.7586 24.126 23.7586Z" fill="#433E0E"/>
</svg>
